<svg width="85" height="63" viewBox="0 0 85 63" fill="none" xmlns="http://www.w3.org/2000/svg">
<g clip-path="url(#clip0_9_5)">
<path d="M42.3409 57V4.63636H60.0341C64.125 4.63636 67.483 5.33523 70.108 6.73295C72.733 8.11363 74.6761 10.0142 75.9375 12.4347C77.1989 14.8551 77.8295 17.608 77.8295 20.6932C77.8295 23.7784 77.1989 26.5142 75.9375 28.9006C74.6761 31.2869 72.7415 33.1619 70.1335 34.5256C67.5256 35.8722 64.1932 36.5455 60.1364 36.5455H45.8182V30.8182H59.9318C62.7273 30.8182 64.9773 30.4091 66.6818 29.5909C68.4034 28.7727 69.6477 27.6136 70.4148 26.1136C71.1989 24.5966 71.5909 22.7898 71.5909 20.6932C71.5909 18.5966 71.1989 16.7642 70.4148 15.196C69.6307 13.6278 68.3778 12.4176 66.6562 11.5653C64.9347 10.696 62.6591 10.2614 59.8295 10.2614H48.6818V57H42.3409ZM66.9886 33.4773L79.875 57H72.5114L59.8295 33.4773H66.9886Z" fill="white"/>
<path d="M42.6591 57V4.63636H24.9659C20.875 4.63636 17.517 5.33523 14.892 6.73295C12.267 8.11363 10.3239 10.0142 9.0625 12.4347C7.80114 14.8551 7.17045 17.608 7.17045 20.6932C7.17045 23.7784 7.80114 26.5142 9.0625 28.9006C10.3239 31.2869 12.2585 33.1619 14.8665 34.5256C17.4744 35.8722 20.8068 36.5455 24.8636 36.5455H39.1818V30.8182H25.0682C22.2727 30.8182 20.0227 30.4091 18.3182 29.5909C16.5966 28.7727 15.3523 27.6136 14.5852 26.1136C13.8011 24.5966 13.4091 22.7898 13.4091 20.6932C13.4091 18.5966 13.8011 16.7642 14.5852 15.196C15.3693 13.6278 16.6222 12.4176 18.3438 11.5653C20.0653 10.696 22.3409 10.2614 25.1705 10.2614H36.3182V57H42.6591ZM18.0114 33.4773L5.125 57H12.4886L25.1705 33.4773H18.0114Z" fill="#11DEA7"/>
</g>
<defs>
<clipPath id="clip0_9_5">
<rect width="85" height="63" fill="white"/>
</clipPath>
</defs>
</svg>
